<svg width="32" height="32" viewBox="0 0 32 32" fill="none" xmlns="http://www.w3.org/2000/svg">
<path d="M10.5 20C14.0899 20 17 17.0899 17 13.5C17 9.91015 14.0899 7 10.5 7C6.91015 7 4 9.91015 4 13.5C4 17.0899 6.91015 20 10.5 20Z" stroke="#343330" stroke-width="2" stroke-linecap="round" stroke-linejoin="round"/>
<path d="M1.27875 25.0002C2.27761 23.4644 3.64424 22.2024 5.25458 21.3288C6.86491 20.4551 8.66795 19.9976 10.5 19.9976C12.332 19.9976 14.1351 20.4551 15.7454 21.3288C17.3558 22.2024 18.7224 23.4644 19.7212 25.0002" stroke="#343330" stroke-width="2" stroke-linecap="round" stroke-linejoin="round"/>
<path d="M21.5 20C23.332 19.9989 25.1351 20.4558 26.7456 21.329C28.356 22.2022 29.7227 23.4641 30.7213 25" stroke="#343330" stroke-width="2" stroke-linecap="round" stroke-linejoin="round"/>
<path d="M19.0862 7.4625C19.9754 7.10787 20.9319 6.954 21.8874 7.0119C22.8429 7.0698 23.7738 7.33802 24.6136 7.79742C25.4535 8.25681 26.1815 8.89602 26.7456 9.66939C27.3097 10.4428 27.6961 11.3312 27.8771 12.2712C28.058 13.2112 28.0291 14.1795 27.7925 15.1071C27.5558 16.0346 27.1172 16.8984 26.5079 17.6368C25.8987 18.3752 25.1339 18.9698 24.2682 19.3784C23.4025 19.7869 22.4572 19.9992 21.5 20" stroke="#343330" stroke-width="2" stroke-linecap="round" stroke-linejoin="round"/>
</svg>
